<svg xmlns="http://www.w3.org/2000/svg" width="532.86181640625" height="237.46788024902344" viewBox="-213.04930114746094 -48.2669677734375 532.86181640625 237.46788024902344"><title>Neo4j Graph Visualization</title><desc>Created using Neo4j (http://www.neo4j.com/)</desc><g class="layer relationships"><g class="relationship" transform="translate(9.019553204764001 56.99266506128207) rotate(366.29548301009913)"><path class="outline" fill="#68BDF6" stroke="none" d="M 10 0.5 L 21.78183707315383 0.5 L 21.78183707315383 -0.5 L 10 -0.5 Z M 67.78183707315384 0.5 L 79.56367414630766 0.5 L 79.56367414630766 3.5 L 86.56367414630766 0 L 79.56367414630766 -3.5 L 79.56367414630766 -0.5 L 67.78183707315384 -0.5 Z"/><text text-anchor="middle" pointer-events="none" font-size="11px" fill="#272822" x="44.78183707315383" y="4.5" font-family="sans-serif">ISMICOF</text></g><g class="relationship" transform="translate(9.019553204764001 56.99266506128207) rotate(513.6480110016794)"><path class="outline" fill="#6DCE9E" stroke="none" d="M 10 0.5 L 52.35945971041974 0.5 L 52.35945971041974 -0.5 L 10 -0.5 Z M 109.35945971041974 0.5 L 151.71891942083948 0.5 L 151.71891942083948 3.5 L 158.71891942083948 0 L 151.71891942083948 -3.5 L 151.71891942083948 -0.5 L 109.35945971041974 -0.5 Z"/><text text-anchor="middle" pointer-events="none" font-size="11px" fill="#272822" x="80.85945971041974" y="4.5" transform="rotate(180 80.85945971041974 0)" font-family="sans-serif">EVALWITH</text></g><g class="relationship" transform="translate(9.019553204764001 56.99266506128207) rotate(193.90087635151474)"><path class="outline" fill="#6DCE9E" stroke="none" d="M 10 0.5 L 43.903271232994555 0.5 L 43.903271232994555 -0.5 L 10 -0.5 Z M 100.90327123299456 0.5 L 134.8065424659891 0.5 L 134.8065424659891 3.5 L 141.8065424659891 0 L 134.8065424659891 -3.5 L 134.8065424659891 -0.5 L 100.90327123299456 -0.5 Z"/><text text-anchor="middle" pointer-events="none" font-size="11px" fill="#272822" x="72.40327123299456" y="4.5" transform="rotate(180 72.40327123299456 0)" font-family="sans-serif">EVALWITH</text></g><g class="relationship" transform="translate(9.643271437357441 136.54843941098972) rotate(537.227848360561)"><path class="outline" fill="#6DCE9E" stroke="none" d="M 10 0.5 L 42.45096283821961 0.5 L 42.45096283821961 -0.5 L 10 -0.5 Z M 99.45096283821961 0.5 L 131.90192567643922 0.5 L 131.90192567643922 3.5 L 138.90192567643922 0 L 131.90192567643922 -3.5 L 131.90192567643922 -0.5 L 99.45096283821961 -0.5 Z"/><text text-anchor="middle" pointer-events="none" font-size="11px" fill="#272822" x="70.95096283821961" y="4.5" transform="rotate(180 70.95096283821961 0)" font-family="sans-serif">EVALWITH</text></g><g class="relationship" transform="translate(8.69369752457078 98.57014123862018) rotate(525.2997699500374)"><path class="outline" fill="#6DCE9E" stroke="none" d="M 10 0.5 L 44.87899666460672 0.5 L 44.87899666460672 -0.5 L 10 -0.5 Z M 101.87899666460672 0.5 L 136.75799332921343 0.5 L 136.75799332921343 3.5 L 143.75799332921343 0 L 136.75799332921343 -3.5 L 136.75799332921343 -0.5 L 101.87899666460672 -0.5 Z"/><text text-anchor="middle" pointer-events="none" font-size="11px" fill="#272822" x="73.37899666460672" y="4.5" transform="rotate(180 73.37899666460672 0)" font-family="sans-serif">EVALWITH</text></g><g class="relationship" transform="translate(10.138944152736435 169.13083051309823) rotate(187.6066314794415)"><path class="outline" fill="#6DCE9E" stroke="none" d="M 10 0.5 L 43.3895277381157 0.5 L 43.3895277381157 -0.5 L 10 -0.5 Z M 100.3895277381157 0.5 L 133.7790554762314 0.5 L 133.7790554762314 3.5 L 140.7790554762314 0 L 133.7790554762314 -3.5 L 133.7790554762314 -0.5 L 100.3895277381157 -0.5 Z"/><text text-anchor="middle" pointer-events="none" font-size="11px" fill="#272822" x="71.8895277381157" y="4.5" transform="rotate(180 71.8895277381157 0)" font-family="sans-serif">EVALWITH</text></g><g class="relationship" transform="translate(7.365232178392844 -16.928139622136612) rotate(497.41626984982076)"><path class="outline" fill="#6DCE9E" stroke="none" d="M 10 0.5 L 72.79974252202679 0.5 L 72.79974252202679 -0.5 L 10 -0.5 Z M 129.7997425220268 0.5 L 192.59948504405358 0.5 L 192.59948504405358 3.5 L 199.59948504405358 0 L 192.59948504405358 -3.5 L 192.59948504405358 -0.5 L 129.7997425220268 -0.5 Z"/><text text-anchor="middle" pointer-events="none" font-size="11px" fill="#272822" x="101.29974252202679" y="4.5" transform="rotate(180 101.29974252202679 0)" font-family="sans-serif">EVALWITH</text></g><g class="relationship" transform="translate(6.742142814230313 19.127052159581012) rotate(504.35271989354004)"><path class="outline" fill="#6DCE9E" stroke="none" d="M 10 0.5 L 61.16335638540755 0.5 L 61.16335638540755 -0.5 L 10 -0.5 Z M 118.16335638540755 0.5 L 169.3267127708151 0.5 L 169.3267127708151 3.5 L 176.3267127708151 0 L 169.3267127708151 -3.5 L 169.3267127708151 -0.5 L 118.16335638540755 -0.5 Z"/><text text-anchor="middle" pointer-events="none" font-size="11px" fill="#272822" x="89.66335638540755" y="4.5" transform="rotate(180 89.66335638540755 0)" font-family="sans-serif">EVALWITH</text></g><g class="relationship" transform="translate(127.36522617751604 70.0487054198503) rotate(332.34546985659676)"><path class="outline" fill="#FB95AF" stroke="none" d="M 32.5 6.5 L 101.11503418001544 6.5 L 101.11503418001544 9.5 L 120.11503418001544 0 L 101.11503418001544 -9.5 L 101.11503418001544 -6.5 L 32.5 -6.5 Z"/><text text-anchor="middle" pointer-events="none" font-size="11px" fill="#FFFFFF" x="66.80751709000772" y="4.5" font-family="sans-serif">IN</text></g><g class="relationship" transform="translate(127.36522617751604 70.0487054198503) rotate(386.2470904426805)"><path class="outline" fill="#FF756E" stroke="none" d="M 32.5 4 L 56.50622103343888 4 L 56.50622103343888 -4 L 32.5 -4 Z M 87.50622103343888 4 L 111.51244206687775 4 L 111.51244206687775 7 L 125.51244206687775 0 L 111.51244206687775 -7 L 111.51244206687775 -4 L 87.50622103343888 -4 Z"/><text text-anchor="middle" pointer-events="none" font-size="11px" fill="#272822" x="72.00622103343888" y="4.5" font-family="sans-serif">SAW</text></g><g class="relationship" transform="translate(6.742142814230313 19.127052159581012) rotate(382.8872890145049)"><path class="outline" fill="#68BDF6" stroke="none" d="M 10 0.5 L 27.715531027452286 0.5 L 27.715531027452286 -0.5 L 10 -0.5 Z M 73.71553102745229 0.5 L 91.43106205490457 0.5 L 91.43106205490457 3.5 L 98.43106205490457 0 L 91.43106205490457 -3.5 L 91.43106205490457 -0.5 L 73.71553102745229 -0.5 Z"/><text text-anchor="middle" pointer-events="none" font-size="11px" fill="#272822" x="50.715531027452286" y="4.5" font-family="sans-serif">ISMICOF</text></g><g class="relationship" transform="translate(7.365232178392844 -16.928139622136612) rotate(395.93486591331765)"><path class="outline" fill="#68BDF6" stroke="none" d="M 10 0.5 L 36.35291852087778 0.5 L 36.35291852087778 -0.5 L 10 -0.5 Z M 82.35291852087778 0.5 L 108.70583704175556 0.5 L 108.70583704175556 3.5 L 115.70583704175556 0 L 108.70583704175556 -3.5 L 108.70583704175556 -0.5 L 82.35291852087778 -0.5 Z"/><text text-anchor="middle" pointer-events="none" font-size="11px" fill="#272822" x="59.35291852087778" y="4.5" font-family="sans-serif">ISMICOF</text></g><g class="relationship" transform="translate(10.138944152736435 169.13083051309823) rotate(319.7948006039703)"><path class="outline" fill="#68BDF6" stroke="none" d="M 10 0.5 L 38.99514432579301 0.5 L 38.99514432579301 -0.5 L 10 -0.5 Z M 84.995144325793 0.5 L 113.99028865158601 0.5 L 113.99028865158601 3.5 L 120.99028865158601 0 L 113.99028865158601 -3.5 L 113.99028865158601 -0.5 L 84.995144325793 -0.5 Z"/><text text-anchor="middle" pointer-events="none" font-size="11px" fill="#272822" x="61.99514432579301" y="4.5" font-family="sans-serif">ISMICOF</text></g><g class="relationship" transform="translate(8.69369752457078 98.57014123862018) rotate(346.4858847760984)"><path class="outline" fill="#68BDF6" stroke="none" d="M 10 0.5 L 23.275412767942456 0.5 L 23.275412767942456 -0.5 L 10 -0.5 Z M 69.27541276794246 0.5 L 82.55082553588491 0.5 L 82.55082553588491 3.5 L 89.55082553588491 0 L 82.55082553588491 -3.5 L 82.55082553588491 -0.5 L 69.27541276794246 -0.5 Z"/><text text-anchor="middle" pointer-events="none" font-size="11px" fill="#272822" x="46.275412767942456" y="4.5" font-family="sans-serif">ISMICOF</text></g><g class="relationship" transform="translate(9.643271437357441 136.54843941098972) rotate(330.5384109530287)"><path class="outline" fill="#68BDF6" stroke="none" d="M 10 0.5 L 29.85301999307474 0.5 L 29.85301999307474 -0.5 L 10 -0.5 Z M 75.85301999307474 0.5 L 95.70603998614948 0.5 L 95.70603998614948 3.5 L 102.70603998614948 0 L 95.70603998614948 -3.5 L 95.70603998614948 -0.5 L 75.85301999307474 -0.5 Z"/><text text-anchor="middle" pointer-events="none" font-size="11px" fill="#272822" x="52.85301999307474" y="4.5" font-family="sans-serif">ISMICOF</text></g><g class="relationship" transform="translate(9.643271437357441 136.54843941098972) rotate(214.83093474564282)"><path class="outline" fill="#6DCE9E" stroke="none" d="M 10 0.5 L 60.880617204832845 0.5 L 60.880617204832845 -0.5 L 10 -0.5 Z M 117.88061720483284 0.5 L 168.7612344096657 0.5 L 168.7612344096657 3.5 L 175.7612344096657 0 L 168.7612344096657 -3.5 L 168.7612344096657 -0.5 L 117.88061720483284 -0.5 Z"/><text text-anchor="middle" pointer-events="none" font-size="11px" fill="#272822" x="89.38061720483284" y="4.5" transform="rotate(180 89.38061720483284 0)" font-family="sans-serif">EVALWITH</text></g><g class="relationship" transform="translate(8.69369752457078 98.57014123862018) rotate(205.82583865660104)"><path class="outline" fill="#6DCE9E" stroke="none" d="M 10 0.5 L 50.851182659773926 0.5 L 50.851182659773926 -0.5 L 10 -0.5 Z M 107.85118265977393 0.5 L 148.70236531954785 0.5 L 148.70236531954785 3.5 L 155.70236531954785 0 L 148.70236531954785 -3.5 L 148.70236531954785 -0.5 L 107.85118265977393 -0.5 Z"/><text text-anchor="middle" pointer-events="none" font-size="11px" fill="#272822" x="79.35118265977393" y="4.5" transform="rotate(180 79.35118265977393 0)" font-family="sans-serif">EVALWITH</text></g><g class="relationship" transform="translate(10.138944152736435 169.13083051309823) rotate(221.26161570581178)"><path class="outline" fill="#6DCE9E" stroke="none" d="M 10 0.5 L 71.13215637036824 0.5 L 71.13215637036824 -0.5 L 10 -0.5 Z M 128.13215637036825 0.5 L 189.26431274073647 0.5 L 189.26431274073647 3.5 L 196.26431274073647 0 L 189.26431274073647 -3.5 L 189.26431274073647 -0.5 L 128.13215637036825 -0.5 Z"/><text text-anchor="middle" pointer-events="none" font-size="11px" fill="#272822" x="99.63215637036824" y="4.5" transform="rotate(180 99.63215637036824 0)" font-family="sans-serif">EVALWITH</text></g><g class="relationship selected" transform="translate(7.365232178392844 -16.928139622136612) rotate(530.1856475916574)"><path class="outline" fill="#6DCE9E" stroke="none" d="M 10 0.5 L 41.71209005999988 0.5 L 41.71209005999988 -0.5 L 10 -0.5 Z M 98.71209005999988 0.5 L 130.42418011999976 0.5 L 130.42418011999976 3.5 L 137.42418011999976 0 L 130.42418011999976 -3.5 L 130.42418011999976 -0.5 L 98.71209005999988 -0.5 Z"/><text text-anchor="middle" pointer-events="none" font-size="11px" fill="#272822" x="70.21209005999988" y="4.5" transform="rotate(180 70.21209005999988 0)" font-family="sans-serif">EVALWITH</text></g><g class="relationship" transform="translate(6.742142814230313 19.127052159581012) rotate(181.91089320807146)"><path class="outline" fill="#6DCE9E" stroke="none" d="M 10 0.5 L 40.15072941413325 0.5 L 40.15072941413325 -0.5 L 10 -0.5 Z M 97.15072941413325 0.5 L 127.3014588282665 0.5 L 127.3014588282665 3.5 L 134.3014588282665 0 L 127.3014588282665 -3.5 L 127.3014588282665 -0.5 L 97.15072941413325 -0.5 Z"/><text text-anchor="middle" pointer-events="none" font-size="11px" fill="#272822" x="68.65072941413325" y="4.5" transform="rotate(180 68.65072941413325 0)" font-family="sans-serif">EVALWITH</text></g></g><g class="layer nodes"><g class="node" transform="translate(9.019553204764001,56.99266506128207)"><circle class="outline" cx="0" cy="0" r="10" fill="#FFD86E" stroke="#EDBA39" stroke-width="2px"/><text text-anchor="middle" pointer-events="none" y="6" font-size="12px" fill="#604A0E" font-family="sans-serif"> 5</text></g><g class="node" transform="translate(-169.04929651046703,145.20090558834713)"><circle class="outline" cx="0" cy="0" r="40" fill="#6DCE9E" stroke="#60B58B" stroke-width="2px"/><text text-anchor="middle" pointer-events="none" y="6" font-size="12px" fill="#FFFFFF" font-family="sans-serif"> ZischenDet…</text></g><g class="node" transform="translate(269.1890783034784,-4.2669668076190845)"><circle class="outline" cx="0" cy="0" r="40" fill="#FB95AF" stroke="#E0849B" stroke-width="2px"/><text text-anchor="middle" pointer-events="none" y="6" font-size="12px" fill="#FFFFFF" font-family="sans-serif"> Biel</text></g><g class="node" transform="translate(127.36522617751604,70.0487054198503)"><circle class="outline" cx="0" cy="0" r="32.5" fill="#68BDF6" stroke="#5CA8DB" stroke-width="2px"/><text text-anchor="middle" pointer-events="none" y="6" font-size="12px" fill="#FFFFFF" font-family="sans-serif"> m_02708</text></g><g class="node" transform="translate(-167.46238598591296,13.314935920040114)"><circle class="outline" cx="0" cy="0" r="40" fill="#6DCE9E" stroke="#60B58B" stroke-width="2px"/><text text-anchor="middle" pointer-events="none" y="6" font-size="12px" fill="#FFFFFF" font-family="sans-serif"> ZischenDet…</text></g><g class="node" transform="translate(6.742142814230313,19.127052159581012)"><circle class="outline" cx="0" cy="0" r="10" fill="#FFD86E" stroke="#EDBA39" stroke-width="2px"/><text text-anchor="middle" pointer-events="none" y="6" font-size="12px" fill="#604A0E" font-family="sans-serif"> 6</text></g><g class="node" transform="translate(7.365232178392844,-16.928139622136612)"><circle class="outline" cx="0" cy="0" r="10" fill="#FFD86E" stroke="#EDBA39" stroke-width="2px"/><text text-anchor="middle" pointer-events="none" y="6" font-size="12px" fill="#604A0E" font-family="sans-serif"> 7</text></g><g class="node" transform="translate(10.138944152736435,169.13083051309823)"><circle class="outline" cx="0" cy="0" r="10" fill="#FFD86E" stroke="#EDBA39" stroke-width="2px"/><text text-anchor="middle" pointer-events="none" y="6" font-size="12px" fill="#604A0E" font-family="sans-serif"> 1</text></g><g class="node" transform="translate(8.69369752457078,98.57014123862018)"><circle class="outline" cx="0" cy="0" r="10" fill="#FFD86E" stroke="#EDBA39" stroke-width="2px"/><text text-anchor="middle" pointer-events="none" y="6" font-size="12px" fill="#604A0E" font-family="sans-serif"> 4</text></g><g class="node" transform="translate(9.643271437357441,136.54843941098972)"><circle class="outline" cx="0" cy="0" r="10" fill="#FFD86E" stroke="#EDBA39" stroke-width="2px"/><text text-anchor="middle" pointer-events="none" y="6" font-size="12px" fill="#604A0E" font-family="sans-serif"> 2</text></g><g class="node" transform="translate(275.8125410729982,143.2454483751425)"><circle class="outline" cx="0" cy="0" r="40" fill="#FF756E" stroke="#E06760" stroke-width="2px"/><text text-anchor="middle" pointer-events="none" y="0" font-size="12px" fill="#FFFFFF" font-family="sans-serif"> DoSto RABe</text><text text-anchor="middle" pointer-events="none" y="12" font-size="12px" fill="#FFFFFF" font-family="sans-serif"> 511/515</text></g></g></svg>