<svg xmlns="http://www.w3.org/2000/svg" width="697.261962890625" height="310.51275634765625" viewBox="-255.03070068359375 -68.02545166015625 697.261962890625 310.51275634765625"><title>Neo4j Graph Visualization</title><desc>Created using Neo4j (http://www.neo4j.com/)</desc><g class="layer relationships"><g class="relationship" transform="translate(87.52062708867689 97.39676455813779) rotate(242.71703687682452)"><path class="outline" fill="#FF756E" stroke="none" d="M 32.5 4 L 42.060396993826245 4 L 42.060396993826245 -4 L 32.5 -4 Z M 73.06039699382625 4 L 82.62079398765249 4 L 82.62079398765249 7 L 96.62079398765249 0 L 82.62079398765249 -7 L 82.62079398765249 -4 L 73.06039699382625 -4 Z"/><text text-anchor="middle" pointer-events="none" font-size="11px" fill="#272822" x="57.560396993826245" y="4.5" transform="rotate(180 57.560396993826245 0)" font-family="sans-serif">SAW</text></g><g class="relationship" transform="translate(87.52062708867689 97.39676455813779) rotate(406.7380115993026)"><path class="outline" fill="#FB95AF" stroke="none" d="M 32.5 6.5 L 79.81724547238616 6.5 L 79.81724547238616 9.5 L 98.81724547238616 0 L 79.81724547238616 -9.5 L 79.81724547238616 -6.5 L 32.5 -6.5 Z"/><text text-anchor="middle" pointer-events="none" font-size="11px" fill="#FFFFFF" x="56.15862273619308" y="4.5" font-family="sans-serif">IN</text></g><g class="relationship" transform="translate(224.94417566504194 90.51560831111956) rotate(537.1334447114652)"><path class="outline" fill="#68BDF6" stroke="none" d="M 10 1 L 18.047859731637814 1 L 18.047859731637814 -1 L 10 -1 Z M 89.04785973163781 1 L 97.09571946327563 1 L 97.09571946327563 4 L 105.09571946327563 0 L 97.09571946327563 -4 L 97.09571946327563 -1 L 89.04785973163781 -1 Z"/><text text-anchor="middle" pointer-events="none" font-size="11px" fill="#272822" x="53.547859731637814" y="4.5" transform="rotate(180 53.547859731637814 0)" font-family="sans-serif">ISANEVALOF</text></g><g class="relationship" transform="translate(224.94417566504194 90.51560831111956) rotate(355.9294160399129)"><path class="outline" fill="#6DCE9E" stroke="none" d="M 10 1 L 26.8626734531683 1 L 26.8626734531683 -1 L 10 -1 Z M 108.8626734531683 1 L 125.7253469063366 1 L 125.7253469063366 4 L 133.7253469063366 0 L 125.7253469063366 -4 L 125.7253469063366 -1 L 108.8626734531683 -1 Z"/><text text-anchor="middle" pointer-events="none" font-size="11px" fill="#272822" x="67.8626734531683" y="4.5" font-family="sans-serif">WASEVALWITH</text></g><g class="relationship" transform="translate(220.13804862790386 44.89279846936266) rotate(518.4011150833261)"><path class="outline" fill="#68BDF6" stroke="none" d="M 10 1 L 20.566279611958635 1 L 20.566279611958635 -1 L 10 -1 Z M 91.56627961195863 1 L 102.13255922391727 1 L 102.13255922391727 4 L 110.13255922391727 0 L 102.13255922391727 -4 L 102.13255922391727 -1 L 91.56627961195863 -1 Z"/><text text-anchor="middle" pointer-events="none" font-size="11px" fill="#272822" x="56.066279611958635" y="4.5" transform="rotate(180 56.066279611958635 0)" font-family="sans-serif">ISANEVALOF</text></g><g class="relationship" transform="translate(220.13804862790386 44.89279846936266) rotate(370.58806829861265)"><path class="outline" fill="#6DCE9E" stroke="none" d="M 10 1 L 30.5890152245275 1 L 30.5890152245275 -1 L 10 -1 Z M 112.5890152245275 1 L 133.178030449055 1 L 133.178030449055 4 L 141.178030449055 0 L 133.178030449055 -4 L 133.178030449055 -1 L 112.5890152245275 -1 Z"/><text text-anchor="middle" pointer-events="none" font-size="11px" fill="#272822" x="71.5890152245275" y="4.5" font-family="sans-serif">WASEVALWITH</text></g><g class="relationship" transform="translate(231.49383238428618 118.1774182410264) rotate(188.21317619098068)"><path class="outline" fill="#68BDF6" stroke="none" d="M 10 1 L 21.982591406088048 1 L 21.982591406088048 -1 L 10 -1 Z M 92.98259140608805 1 L 104.9651828121761 1 L 104.9651828121761 4 L 112.9651828121761 0 L 104.9651828121761 -4 L 104.9651828121761 -1 L 92.98259140608805 -1 Z"/><text text-anchor="middle" pointer-events="none" font-size="11px" fill="#272822" x="57.48259140608805" y="4.5" transform="rotate(180 57.48259140608805 0)" font-family="sans-serif">ISANEVALOF</text></g><g class="relationship" transform="translate(231.49383238428618 118.1774182410264) rotate(346.5118125324757)"><path class="outline" fill="#6DCE9E" stroke="none" d="M 10 1 L 25.73341842499711 1 L 25.73341842499711 -1 L 10 -1 Z M 107.73341842499711 1 L 123.46683684999422 1 L 123.46683684999422 4 L 131.46683684999422 0 L 123.46683684999422 -4 L 123.46683684999422 -1 L 107.73341842499711 -1 Z"/><text text-anchor="middle" pointer-events="none" font-size="11px" fill="#272822" x="66.73341842499711" y="4.5" font-family="sans-serif">WASEVALWITH</text></g><g class="relationship" transform="translate(240.43346754794368 66.41490242234383) rotate(528.5462806574494)"><path class="outline" fill="#68BDF6" stroke="none" d="M 10 1 L 27.259955388274847 1 L 27.259955388274847 -1 L 10 -1 Z M 98.25995538827485 1 L 115.5199107765497 1 L 115.5199107765497 4 L 123.5199107765497 0 L 115.5199107765497 -4 L 115.5199107765497 -1 L 98.25995538827485 -1 Z"/><text text-anchor="middle" pointer-events="none" font-size="11px" fill="#272822" x="62.75995538827485" y="4.5" transform="rotate(180 62.75995538827485 0)" font-family="sans-serif">ISANEVALOF</text></g><g class="relationship" transform="translate(240.43346754794368 66.41490242234383) rotate(364.26529234544034)"><path class="outline" fill="#6DCE9E" stroke="none" d="M 10 1 L 19.11803183112545 1 L 19.11803183112545 -1 L 10 -1 Z M 101.11803183112545 1 L 110.2360636622509 1 L 110.2360636622509 4 L 118.2360636622509 0 L 110.2360636622509 -4 L 110.2360636622509 -1 L 101.11803183112545 -1 Z"/><text text-anchor="middle" pointer-events="none" font-size="11px" fill="#272822" x="60.11803183112545" y="4.5" font-family="sans-serif">WASEVALWITH</text></g><g class="relationship" transform="translate(214.40021957044337 142.86939187513107) rotate(199.71727188114704)"><path class="outline" fill="#68BDF6" stroke="none" d="M 10 1 L 16.64100611997364 1 L 16.64100611997364 -1 L 10 -1 Z M 87.64100611997364 1 L 94.28201223994728 1 L 94.28201223994728 4 L 102.28201223994728 0 L 94.28201223994728 -4 L 94.28201223994728 -1 L 87.64100611997364 -1 Z"/><text text-anchor="middle" pointer-events="none" font-size="11px" fill="#272822" x="52.14100611997364" y="4.5" transform="rotate(180 52.14100611997364 0)" font-family="sans-serif">ISANEVALOF</text></g><g class="relationship" transform="translate(214.40021957044337 142.86939187513107) rotate(340.6142531644622)"><path class="outline" fill="#6DCE9E" stroke="none" d="M 10 1 L 37.439855537962316 1 L 37.439855537962316 -1 L 10 -1 Z M 119.43985553796232 1 L 146.87971107592463 1 L 146.87971107592463 4 L 154.87971107592463 0 L 146.87971107592463 -4 L 146.87971107592463 -1 L 119.43985553796232 -1 Z"/><text text-anchor="middle" pointer-events="none" font-size="11px" fill="#272822" x="78.43985553796232" y="4.5" font-family="sans-serif">WASEVALWITH</text></g><g class="relationship" transform="translate(228.49278159165806 16.585953053549538) rotate(510.17696045922037)"><path class="outline" fill="#68BDF6" stroke="none" d="M 10 1 L 30.49582389458932 1 L 30.49582389458932 -1 L 10 -1 Z M 101.49582389458932 1 L 121.99164778917864 1 L 121.99164778917864 4 L 129.99164778917864 0 L 121.99164778917864 -4 L 121.99164778917864 -1 L 101.49582389458932 -1 Z"/><text text-anchor="middle" pointer-events="none" font-size="11px" fill="#272822" x="65.99582389458932" y="4.5" transform="rotate(180 65.99582389458932 0)" font-family="sans-serif">ISANEVALOF</text></g><g class="relationship" transform="translate(228.49278159165806 16.585953053549538) rotate(379.94571598514824)"><path class="outline" fill="#6DCE9E" stroke="none" d="M 10 1 L 30.284873223671738 1 L 30.284873223671738 -1 L 10 -1 Z M 112.28487322367174 1 L 132.56974644734348 1 L 132.56974644734348 4 L 140.56974644734348 0 L 132.56974644734348 -4 L 132.56974644734348 -1 L 112.28487322367174 -1 Z"/><text text-anchor="middle" pointer-events="none" font-size="11px" fill="#272822" x="71.28487322367174" y="4.5" font-family="sans-serif">WASEVALWITH</text></g><g class="relationship" transform="translate(-46.42685024503061 102.58716966585901) rotate(182.88111347890543)"><path class="outline" fill="#6DCE9E" stroke="none" d="M 10 1 L 22.406086129041412 1 L 22.406086129041412 -1 L 10 -1 Z M 104.40608612904141 1 L 116.81217225808282 1 L 116.81217225808282 4 L 124.81217225808282 0 L 116.81217225808282 -4 L 116.81217225808282 -1 L 104.40608612904141 -1 Z"/><text text-anchor="middle" pointer-events="none" font-size="11px" fill="#272822" x="63.40608612904141" y="4.5" transform="rotate(180 63.40608612904141 0)" font-family="sans-serif">WASEVALWITH</text></g><g class="relationship" transform="translate(-46.42685024503061 102.58716966585901) rotate(357.7809242780555)"><path class="outline" fill="#68BDF6" stroke="none" d="M 10 1 L 16.27400127798687 1 L 16.27400127798687 -1 L 10 -1 Z M 87.27400127798687 1 L 93.54800255597374 1 L 93.54800255597374 4 L 101.54800255597374 0 L 93.54800255597374 -4 L 93.54800255597374 -1 L 87.27400127798687 -1 Z"/><text text-anchor="middle" pointer-events="none" font-size="11px" fill="#272822" x="51.77400127798687" y="4.5" font-family="sans-serif">ISANEVALOF</text></g><g class="relationship" transform="translate(-40.19090246932345 46.645721847434196) rotate(524.4130536690644)"><path class="outline" fill="#6DCE9E" stroke="none" d="M 10 1 L 28.68125581655798 1 L 28.68125581655798 -1 L 10 -1 Z M 110.68125581655798 1 L 129.36251163311596 1 L 129.36251163311596 4 L 137.36251163311596 0 L 129.36251163311596 -4 L 129.36251163311596 -1 L 110.68125581655798 -1 Z"/><text text-anchor="middle" pointer-events="none" font-size="11px" fill="#272822" x="69.68125581655798" y="4.5" transform="rotate(180 69.68125581655798 0)" font-family="sans-serif">WASEVALWITH</text></g><g class="relationship" transform="translate(-40.19090246932345 46.645721847434196) rotate(381.67228430153494)"><path class="outline" fill="#68BDF6" stroke="none" d="M 10 1 L 17.962995710905474 1 L 17.962995710905474 -1 L 10 -1 Z M 88.96299571090547 1 L 96.92599142181095 1 L 96.92599142181095 4 L 104.92599142181095 0 L 96.92599142181095 -4 L 96.92599142181095 -1 L 88.96299571090547 -1 Z"/><text text-anchor="middle" pointer-events="none" font-size="11px" fill="#272822" x="53.462995710905474" y="4.5" font-family="sans-serif">ISANEVALOF</text></g><g class="relationship" transform="translate(-45.42603391234077 133.30122360903948) rotate(193.25111656602218)"><path class="outline" fill="#6DCE9E" stroke="none" d="M 10 1 L 25.067265004793953 1 L 25.067265004793953 -1 L 10 -1 Z M 107.06726500479395 1 L 122.1345300095879 1 L 122.1345300095879 4 L 130.1345300095879 0 L 122.1345300095879 -4 L 122.1345300095879 -1 L 107.06726500479395 -1 Z"/><text text-anchor="middle" pointer-events="none" font-size="11px" fill="#272822" x="66.06726500479395" y="4.5" transform="rotate(180 66.06726500479395 0)" font-family="sans-serif">WASEVALWITH</text></g><g class="relationship" transform="translate(-45.42603391234077 133.30122360903948) rotate(344.8868657722552)"><path class="outline" fill="#68BDF6" stroke="none" d="M 10 1 L 18.104819822321417 1 L 18.104819822321417 -1 L 10 -1 Z M 89.10481982232142 1 L 97.20963964464283 1 L 97.20963964464283 4 L 105.20963964464283 0 L 97.20963964464283 -4 L 97.20963964464283 -1 L 89.10481982232142 -1 Z"/><text text-anchor="middle" pointer-events="none" font-size="11px" fill="#272822" x="53.60481982232142" y="4.5" font-family="sans-serif">ISANEVALOF</text></g><g class="relationship" transform="translate(-41.05310106870418 74.95537461498401) rotate(533.5062492242254)"><path class="outline" fill="#6DCE9E" stroke="none" d="M 10 1 L 25.537590119565905 1 L 25.537590119565905 -1 L 10 -1 Z M 107.5375901195659 1 L 123.07518023913181 1 L 123.07518023913181 4 L 131.0751802391318 0 L 123.07518023913181 -4 L 123.07518023913181 -1 L 107.5375901195659 -1 Z"/><text text-anchor="middle" pointer-events="none" font-size="11px" fill="#272822" x="66.5375901195659" y="4.5" transform="rotate(180 66.5375901195659 0)" font-family="sans-serif">WASEVALWITH</text></g><g class="relationship" transform="translate(-41.05310106870418 74.95537461498401) rotate(369.9007274592382)"><path class="outline" fill="#68BDF6" stroke="none" d="M 10 1 L 14.508753349395235 1 L 14.508753349395235 -1 L 10 -1 Z M 85.50875334939523 1 L 90.01750669879047 1 L 90.01750669879047 4 L 98.01750669879047 0 L 90.01750669879047 -4 L 90.01750669879047 -1 L 85.50875334939523 -1 Z"/><text text-anchor="middle" pointer-events="none" font-size="11px" fill="#272822" x="50.008753349395235" y="4.5" font-family="sans-serif">ISANEVALOF</text></g><g class="relationship" transform="translate(-36.785771777308284 164.81476240487498) rotate(202.03169470342823)"><path class="outline" fill="#6DCE9E" stroke="none" d="M 10 1 L 33.98562256393143 1 L 33.98562256393143 -1 L 10 -1 Z M 115.98562256393143 1 L 139.97124512786286 1 L 139.97124512786286 4 L 147.97124512786286 0 L 139.97124512786286 -4 L 139.97124512786286 -1 L 115.98562256393143 -1 Z"/><text text-anchor="middle" pointer-events="none" font-size="11px" fill="#272822" x="74.98562256393143" y="4.5" transform="rotate(180 74.98562256393143 0)" font-family="sans-serif">WASEVALWITH</text></g><g class="relationship" transform="translate(-36.785771777308284 164.81476240487498) rotate(331.52665895930636)"><path class="outline" fill="#68BDF6" stroke="none" d="M 10 1 L 19.955847057884938 1 L 19.955847057884938 -1 L 10 -1 Z M 90.95584705788494 1 L 100.91169411576988 1 L 100.91169411576988 4 L 108.91169411576988 0 L 100.91169411576988 -4 L 100.91169411576988 -1 L 90.95584705788494 -1 Z"/><text text-anchor="middle" pointer-events="none" font-size="11px" fill="#272822" x="55.45584705788494" y="4.5" font-family="sans-serif">ISANEVALOF</text></g><g class="relationship" transform="translate(-52.78758978504129 15.178181733879) rotate(513.4339754589415)"><path class="outline" fill="#6DCE9E" stroke="none" d="M 10 1 L 28.461337383164917 1 L 28.461337383164917 -1 L 10 -1 Z M 110.46133738316492 1 L 128.92267476632983 1 L 128.92267476632983 4 L 136.92267476632983 0 L 128.92267476632983 -4 L 128.92267476632983 -1 L 110.46133738316492 -1 Z"/><text text-anchor="middle" pointer-events="none" font-size="11px" fill="#272822" x="69.46133738316492" y="4.5" transform="rotate(180 69.46133738316492 0)" font-family="sans-serif">WASEVALWITH</text></g><g class="relationship" transform="translate(-52.78758978504129 15.178181733879) rotate(390.3696849211628)"><path class="outline" fill="#68BDF6" stroke="none" d="M 10 1 L 30.56157833284236 1 L 30.56157833284236 -1 L 10 -1 Z M 101.56157833284236 1 L 122.12315666568472 1 L 122.12315666568472 4 L 130.12315666568472 0 L 122.12315666568472 -4 L 122.12315666568472 -1 L 101.56157833284236 -1 Z"/><text text-anchor="middle" pointer-events="none" font-size="11px" fill="#272822" x="66.06157833284236" y="4.5" font-family="sans-serif">ISANEVALOF</text></g></g><g class="layer nodes"><g class="node selected" transform="translate(182.65699642216111,198.48731243766804)"><circle class="outline" cx="0" cy="0" r="40" fill="#FB95AF" stroke="#E0849B" stroke-width="2px"/><text text-anchor="middle" pointer-events="none" y="6" font-size="12px" fill="#FFFFFF" font-family="sans-serif"> Zug</text></g><g class="node" transform="translate(224.94417566504194,90.51560831111956)"><circle class="outline" cx="0" cy="0" r="10" fill="#FFD86E" stroke="#EDBA39" stroke-width="2px"/><text text-anchor="middle" pointer-events="none" y="6" font-size="12px" fill="#604A0E" font-family="sans-serif"> 5</text></g><g class="node" transform="translate(24.895662871416846,-24.025454193635483)"><circle class="outline" cx="0" cy="0" r="40" fill="#FF756E" stroke="#E06760" stroke-width="2px"/><text text-anchor="middle" pointer-events="none" y="6" font-size="12px" fill="#FFFFFF" font-family="sans-serif"> S-Bahn DPZ</text></g><g class="node" transform="translate(398.23127584403545,78.1836551291429)"><circle class="outline" cx="0" cy="0" r="40" fill="#6DCE9E" stroke="#60B58B" stroke-width="2px"/><text text-anchor="middle" pointer-events="none" y="6" font-size="12px" fill="#FFFFFF" font-family="sans-serif"> ZischenDet…</text></g><g class="node" transform="translate(87.52062708867689,97.39676455813779)"><circle class="outline" cx="0" cy="0" r="32.5" fill="#68BDF6" stroke="#5CA8DB" stroke-width="2px"/><text text-anchor="middle" pointer-events="none" y="6" font-size="12px" fill="#FFFFFF" font-family="sans-serif"> m_1749</text></g><g class="node" transform="translate(220.13804862790386,44.89279846936266)"><circle class="outline" cx="0" cy="0" r="10" fill="#FFD86E" stroke="#EDBA39" stroke-width="2px"/><text text-anchor="middle" pointer-events="none" y="6" font-size="12px" fill="#604A0E" font-family="sans-serif"> 2</text></g><g class="node" transform="translate(231.49383238428618,118.1774182410264)"><circle class="outline" cx="0" cy="0" r="10" fill="#FFD86E" stroke="#EDBA39" stroke-width="2px"/><text text-anchor="middle" pointer-events="none" y="6" font-size="12px" fill="#604A0E" font-family="sans-serif"> 6</text></g><g class="node" transform="translate(240.43346754794368,66.41490242234383)"><circle class="outline" cx="0" cy="0" r="10" fill="#FFD86E" stroke="#EDBA39" stroke-width="2px"/><text text-anchor="middle" pointer-events="none" y="6" font-size="12px" fill="#604A0E" font-family="sans-serif"> 4</text></g><g class="node" transform="translate(214.40021957044337,142.86939187513107)"><circle class="outline" cx="0" cy="0" r="10" fill="#FFD86E" stroke="#EDBA39" stroke-width="2px"/><text text-anchor="middle" pointer-events="none" y="6" font-size="12px" fill="#604A0E" font-family="sans-serif"> 7</text></g><g class="node" transform="translate(228.49278159165806,16.585953053549538)"><circle class="outline" cx="0" cy="0" r="10" fill="#FFD86E" stroke="#EDBA39" stroke-width="2px"/><text text-anchor="middle" pointer-events="none" y="6" font-size="12px" fill="#604A0E" font-family="sans-serif"> 1</text></g><g class="node" transform="translate(-211.03069661713369,94.3030955512066)"><circle class="outline" cx="0" cy="0" r="40" fill="#6DCE9E" stroke="#60B58B" stroke-width="2px"/><text text-anchor="middle" pointer-events="none" y="6" font-size="12px" fill="#FFFFFF" font-family="sans-serif"> ZischenDet…</text></g><g class="node" transform="translate(-46.42685024503061,102.58716966585901)"><circle class="outline" cx="0" cy="0" r="10" fill="#FFD86E" stroke="#EDBA39" stroke-width="2px"/><text text-anchor="middle" pointer-events="none" y="6" font-size="12px" fill="#604A0E" font-family="sans-serif"> 5</text></g><g class="node" transform="translate(-40.19090246932345,46.645721847434196)"><circle class="outline" cx="0" cy="0" r="10" fill="#FFD86E" stroke="#EDBA39" stroke-width="2px"/><text text-anchor="middle" pointer-events="none" y="6" font-size="12px" fill="#604A0E" font-family="sans-serif"> 2</text></g><g class="node" transform="translate(-45.42603391234077,133.30122360903948)"><circle class="outline" cx="0" cy="0" r="10" fill="#FFD86E" stroke="#EDBA39" stroke-width="2px"/><text text-anchor="middle" pointer-events="none" y="6" font-size="12px" fill="#604A0E" font-family="sans-serif"> 6</text></g><g class="node" transform="translate(-41.05310106870418,74.95537461498401)"><circle class="outline" cx="0" cy="0" r="10" fill="#FFD86E" stroke="#EDBA39" stroke-width="2px"/><text text-anchor="middle" pointer-events="none" y="6" font-size="12px" fill="#604A0E" font-family="sans-serif"> 4</text></g><g class="node" transform="translate(-36.785771777308284,164.81476240487498)"><circle class="outline" cx="0" cy="0" r="10" fill="#FFD86E" stroke="#EDBA39" stroke-width="2px"/><text text-anchor="middle" pointer-events="none" y="6" font-size="12px" fill="#604A0E" font-family="sans-serif"> 7</text></g><g class="node" transform="translate(-52.78758978504129,15.178181733879)"><circle class="outline" cx="0" cy="0" r="10" fill="#FFD86E" stroke="#EDBA39" stroke-width="2px"/><text text-anchor="middle" pointer-events="none" y="6" font-size="12px" fill="#604A0E" font-family="sans-serif"> 1</text></g></g></svg>